<?xml version="1.0" encoding="UTF-8"?>
<svg width="100pt" height="100pt" version="1.1" viewBox="0 0 100 100" xmlns="http://www.w3.org/2000/svg">
 <g>
  <path d="m98.98 39.797c0-5.1016-7.7539-8.1641-15.305-9.7969 4.2852-6.5312 7.5508-14.082 4.082-17.754-3.6719-3.6719-11.223-0.20312-17.754 4.082-1.6328-7.5508-4.4883-15.305-9.7969-15.305-5.1016 0-8.1641 7.7539-9.7969 15.305-6.5312-4.2852-14.082-7.5508-17.754-4.082-3.6719 3.6719-0.20312 11.223 4.082 17.754-7.5508 1.6328-15.305 4.4883-15.305 9.7969 0 4.2852 5.3047 6.9375 11.223 8.7773-9.1836 3.8789-28.367 15.918-31.633 48.164-0.20313 1.0195 0.61328 2.0391 1.8359 2.2461h0.20312c1.0195 0 1.8359-0.81641 2.0391-1.8359 0.20313-2.4492 0.61328-4.6953 1.0195-6.9375 1.6328 1.0195 4.082 2.0391 7.1445 2.0391 1.2227 0 2.6523-0.20312 3.8789-0.61328 1.2227 1.0195 2.8555 1.6328 5.1016 1.6328h1.0195c2.8555-0.20312 6.3281-1.2227 9.5938-3.0625 6.9375-3.8789 9.1836-12.246 9.3867-12.652 0.20312-1.0195-0.40625-2.2461-1.4297-2.4492-0.40625-0.20312-8.7773-2.6523-15.715 1.2227-3.2656 1.8359-5.918 4.082-7.7539 6.5312-1.4297 1.8359-2.0391 3.6719-2.0391 5.3047-4.082 1.0195-7.3477-1.2227-8.3672-2.0391 6.1211-23.469 21.633-31.836 28.367-34.285-3.4688 5.918-5.918 12.246-2.6523 15.512 3.6719 3.6719 11.223 0.20313 17.754-4.082 1.6328 7.5508 4.4883 15.305 9.7969 15.305 5.1016 0 8.1641-7.7539 9.7969-15.305 6.5312 4.2852 14.082 7.5508 17.754 4.082 3.6719-3.6719 0.20313-11.223-4.082-17.754 7.5469-1.6367 15.305-4.6992 15.305-9.8008zm-78.367 45.305c1.4297-1.8359 3.6719-3.8789 6.3281-5.3047 2.2461-1.2227 4.6953-1.6328 6.9375-1.6328 1.4297 0 2.6523 0.20313 3.4688 0.20313-1.0195 2.4492-3.0625 6.1211-6.5312 8.1641-2.6523 1.4297-5.5117 2.4492-7.9609 2.6523-2.0391 0.20312-3.0625-0.40625-3.4688-0.81641 0-0.40625 0-1.6328 1.2266-3.2656zm59.184-38.98c-0.61328 0.20312-1.2227 0.61328-1.6328 1.2227-0.20312 0.61328-0.20312 1.4297 0.20313 2.0391 6.3281 9.1836 7.1445 14.082 6.1211 15.102-1.0195 1.0195-5.918 0.20312-15.102-6.1211-0.61328-0.40625-1.2227-0.40625-2.0391-0.20312-0.61328 0.20312-1.0195 0.81641-1.2227 1.6328-1.8359 11.02-4.8984 15.102-6.3281 15.102s-4.2852-4.082-6.3281-15.102c-0.20312-0.61328-0.61328-1.2227-1.2227-1.6328-0.20312-0.20312-0.61328-0.20312-0.81641-0.20312-0.40625 0-0.81641 0.20312-1.2227 0.40625-9.1836 6.3281-14.082 7.1445-15.102 6.1211-1.0195-1.0195-0.20312-5.918 6.1211-15.102 0.40625-0.61328 0.40625-1.2227 0.20313-2.0391-0.20313-0.61328-0.81641-1.0195-1.6328-1.2227-11.02-1.8359-15.102-4.8984-15.102-6.3281 0-1.4297 4.082-4.2852 15.102-6.3281 0.61328-0.20312 1.2227-0.61328 1.6328-1.2227 0.20312-0.61328 0.20312-1.4297-0.20313-2.0391-6.3281-9.1836-7.1445-14.082-6.1211-15.102 1.0195-1.0195 5.918-0.20312 15.102 6.1211 0.61328 0.40625 1.2227 0.40625 2.0391 0.20312 0.61328-0.20312 1.0195-0.81641 1.2227-1.6328 1.8359-11.02 4.8984-15.102 6.3281-15.102s4.2852 4.082 6.3281 15.102c0.20312 0.61328 0.61328 1.2227 1.2227 1.6328 0.61328 0.20312 1.4297 0.20312 2.0391-0.20312 9.1836-6.3281 14.082-7.1445 15.102-6.1211 1.0195 1.0195 0.20312 5.918-6.1211 15.102-0.40625 0.61328-0.40625 1.2227-0.20313 2.0391 0.20313 0.61328 0.81641 1.0195 1.6328 1.2227 11.02 1.8359 15.102 4.8984 15.102 6.3281 0 1.4297-4.082 4.2891-15.102 6.3281z"/>
  <path d="m60.203 31.223c-4.6953 0-8.5703 3.8789-8.5703 8.5703 0 4.6953 3.8789 8.5703 8.5703 8.5703 4.6953 0 8.5703-3.8789 8.5703-8.5703 0.003906-4.6914-3.875-8.5703-8.5703-8.5703zm0 13.062c-2.4492 0-4.4883-2.0391-4.4883-4.4883s2.0391-4.4883 4.4883-4.4883 4.4883 2.0391 4.4883 4.4883c0.003906 2.4492-2.0391 4.4883-4.4883 4.4883z"/>
 </g>
</svg>
